<mxfile host="app.diagrams.net" modified="2023-07-22T18:09:11.390Z" agent="Mozilla/5.0 (Windows NT 10.0; Win64; x64) AppleWebKit/537.36 (KHTML, like Gecko) Chrome/114.0.0.0 Safari/537.36" etag="irUYhycC7S5edHlJ5HZE" version="21.6.5" type="google">
  <diagram name="Page-1" id="5f0bae14-7c28-e335-631c-24af17079c00">
    <mxGraphModel grid="1" page="1" gridSize="10" guides="1" tooltips="1" connect="1" arrows="1" fold="1" pageScale="1" pageWidth="3300" pageHeight="4681" background="none" math="0" shadow="0">
      <root>
        <mxCell id="0" />
        <mxCell id="1" parent="0" />
        <mxCell id="39150e848f15840c-1" value="" style="verticalAlign=top;align=left;spacingTop=8;spacingLeft=2;spacingRight=12;shape=cube;size=20;direction=south;fontStyle=4;html=1;rounded=0;shadow=0;comic=0;labelBackgroundColor=none;strokeWidth=1;fontFamily=Verdana;fontSize=12;fillColor=#f5f5f5;fontColor=#333333;strokeColor=#666666;" vertex="1" parent="1">
          <mxGeometry x="580" y="380" width="330" height="220" as="geometry" />
        </mxCell>
        <mxCell id="39150e848f15840c-2" value="" style="verticalAlign=top;align=left;spacingTop=8;spacingLeft=2;spacingRight=12;shape=cube;size=40;direction=south;fontStyle=4;html=1;rounded=0;shadow=0;comic=0;labelBackgroundColor=none;strokeWidth=1;fontFamily=Verdana;fontSize=12;fillColor=#f5f5f5;fontColor=#333333;strokeColor=#666666;" vertex="1" parent="1">
          <mxGeometry x="1670" y="610" width="520" height="445" as="geometry" />
        </mxCell>
        <mxCell id="39150e848f15840c-3" value="" style="verticalAlign=top;align=left;spacingTop=8;spacingLeft=2;spacingRight=12;shape=cube;size=20;direction=south;fontStyle=4;html=1;rounded=0;shadow=0;comic=0;labelBackgroundColor=none;strokeWidth=1;fontFamily=Verdana;fontSize=12;fillColor=#f5f5f5;fontColor=#333333;strokeColor=#666666;" vertex="1" parent="1">
          <mxGeometry x="570" y="1040" width="330" height="215" as="geometry" />
        </mxCell>
        <mxCell id="39150e848f15840c-5" value="&lt;b&gt;Navegador Web&lt;/b&gt;" style="shape=component;align=left;spacingLeft=36;rounded=0;shadow=0;comic=0;labelBackgroundColor=none;strokeWidth=1;fontFamily=Verdana;fontSize=12;html=1;" vertex="1" parent="1">
          <mxGeometry x="660" y="475" width="150" height="60" as="geometry" />
        </mxCell>
        <mxCell id="39150e848f15840c-7" value="&lt;b&gt;NetBeans&lt;/b&gt;" style="shape=component;align=left;spacingLeft=36;rounded=0;shadow=0;comic=0;labelBackgroundColor=none;strokeWidth=1;fontFamily=Verdana;fontSize=12;html=1;" vertex="1" parent="1">
          <mxGeometry x="1700" y="710" width="120" height="60" as="geometry" />
        </mxCell>
        <mxCell id="39150e848f15840c-10" value="&lt;b&gt;VisualStudio Code&lt;/b&gt;" style="shape=component;align=left;spacingLeft=36;rounded=0;shadow=0;comic=0;labelBackgroundColor=none;strokeWidth=1;fontFamily=Verdana;fontSize=12;html=1;" vertex="1" parent="1">
          <mxGeometry x="1690" y="950" width="160" height="60" as="geometry" />
        </mxCell>
        <mxCell id="5w2LUHWujk-qeieROwjQ-1" value="&lt;b&gt;Usuario&lt;/b&gt;" style="text;html=1;strokeColor=none;fillColor=none;align=center;verticalAlign=middle;whiteSpace=wrap;rounded=0;" vertex="1" parent="1">
          <mxGeometry x="600" y="420" width="60" height="30" as="geometry" />
        </mxCell>
        <mxCell id="5w2LUHWujk-qeieROwjQ-2" value="&lt;b&gt;PC&lt;/b&gt;" style="text;html=1;strokeColor=none;fillColor=none;align=center;verticalAlign=middle;whiteSpace=wrap;rounded=0;" vertex="1" parent="1">
          <mxGeometry x="580" y="1070" width="60" height="30" as="geometry" />
        </mxCell>
        <mxCell id="5w2LUHWujk-qeieROwjQ-5" value="&lt;b&gt;Navegador Web&lt;/b&gt;" style="shape=component;align=left;spacingLeft=36;rounded=0;shadow=0;comic=0;labelBackgroundColor=none;strokeWidth=1;fontFamily=Verdana;fontSize=12;html=1;" vertex="1" parent="1">
          <mxGeometry x="660" y="1117.5" width="145" height="60" as="geometry" />
        </mxCell>
        <mxCell id="5w2LUHWujk-qeieROwjQ-6" value="" style="verticalAlign=top;align=left;spacingTop=8;spacingLeft=2;spacingRight=12;shape=cube;size=40;direction=south;fontStyle=4;html=1;rounded=0;shadow=0;comic=0;labelBackgroundColor=none;strokeWidth=1;fontFamily=Verdana;fontSize=12;fillColor=#f5f5f5;fontColor=#333333;strokeColor=#666666;" vertex="1" parent="1">
          <mxGeometry x="2580" y="680" width="270" height="280" as="geometry" />
        </mxCell>
        <mxCell id="5w2LUHWujk-qeieROwjQ-13" style="edgeStyle=orthogonalEdgeStyle;rounded=0;orthogonalLoop=1;jettySize=auto;html=1;exitX=0.5;exitY=1;exitDx=0;exitDy=0;exitPerimeter=0;entryX=0.709;entryY=1.008;entryDx=0;entryDy=0;entryPerimeter=0;" edge="1" parent="1" source="5w2LUHWujk-qeieROwjQ-11" target="39150e848f15840c-1">
          <mxGeometry relative="1" as="geometry" />
        </mxCell>
        <mxCell id="5w2LUHWujk-qeieROwjQ-11" value="&lt;b&gt;Windows 7/Superior&lt;/b&gt;" style="shape=note;whiteSpace=wrap;html=1;backgroundOutline=1;darkOpacity=0.05;" vertex="1" parent="1">
          <mxGeometry x="180" y="395" width="170" height="80" as="geometry" />
        </mxCell>
        <mxCell id="5w2LUHWujk-qeieROwjQ-14" style="edgeStyle=orthogonalEdgeStyle;rounded=0;orthogonalLoop=1;jettySize=auto;html=1;exitX=0.5;exitY=1;exitDx=0;exitDy=0;exitPerimeter=0;entryX=0.777;entryY=1.011;entryDx=0;entryDy=0;entryPerimeter=0;" edge="1" parent="1" source="5w2LUHWujk-qeieROwjQ-12" target="39150e848f15840c-3">
          <mxGeometry relative="1" as="geometry" />
        </mxCell>
        <mxCell id="5w2LUHWujk-qeieROwjQ-12" value="&lt;b&gt;Android 7.0/IOS 12&lt;/b&gt;" style="shape=note;whiteSpace=wrap;html=1;backgroundOutline=1;darkOpacity=0.05;" vertex="1" parent="1">
          <mxGeometry x="190" y="1060" width="170" height="80" as="geometry" />
        </mxCell>
        <mxCell id="5w2LUHWujk-qeieROwjQ-15" value="" style="verticalAlign=top;align=left;spacingTop=8;spacingLeft=2;spacingRight=12;shape=cube;size=20;direction=south;fontStyle=4;html=1;rounded=0;shadow=0;comic=0;labelBackgroundColor=none;strokeWidth=1;fontFamily=Verdana;fontSize=12;fillColor=#f5f5f5;fontColor=#333333;strokeColor=#666666;" vertex="1" parent="1">
          <mxGeometry x="1100" y="782.5" width="190" height="85" as="geometry" />
        </mxCell>
        <mxCell id="5w2LUHWujk-qeieROwjQ-24" style="edgeStyle=orthogonalEdgeStyle;rounded=0;orthogonalLoop=1;jettySize=auto;html=1;exitX=0.5;exitY=1;exitDx=0;exitDy=0;" edge="1" parent="1" source="5w2LUHWujk-qeieROwjQ-16" target="5w2LUHWujk-qeieROwjQ-23">
          <mxGeometry relative="1" as="geometry" />
        </mxCell>
        <mxCell id="5w2LUHWujk-qeieROwjQ-16" value="&lt;b&gt;+TCP/IP&lt;/b&gt;" style="text;html=1;strokeColor=none;fillColor=none;align=center;verticalAlign=middle;whiteSpace=wrap;rounded=0;" vertex="1" parent="1">
          <mxGeometry x="1150" y="475" width="60" height="40" as="geometry" />
        </mxCell>
        <mxCell id="5w2LUHWujk-qeieROwjQ-22" style="edgeStyle=orthogonalEdgeStyle;rounded=0;orthogonalLoop=1;jettySize=auto;html=1;exitX=0.5;exitY=0;exitDx=0;exitDy=0;" edge="1" parent="1" source="5w2LUHWujk-qeieROwjQ-17">
          <mxGeometry relative="1" as="geometry">
            <mxPoint x="1180.3333333333335" y="870" as="targetPoint" />
          </mxGeometry>
        </mxCell>
        <mxCell id="5w2LUHWujk-qeieROwjQ-17" value="&lt;b&gt;+TCP/IP&lt;/b&gt;" style="text;html=1;strokeColor=none;fillColor=none;align=center;verticalAlign=middle;whiteSpace=wrap;rounded=0;" vertex="1" parent="1">
          <mxGeometry x="1150" y="1117.5" width="60" height="40" as="geometry" />
        </mxCell>
        <mxCell id="5w2LUHWujk-qeieROwjQ-20" value="" style="endArrow=none;html=1;rounded=0;exitX=0;exitY=0;exitDx=97.5;exitDy=0;exitPerimeter=0;entryX=0;entryY=0.5;entryDx=0;entryDy=0;" edge="1" parent="1" source="39150e848f15840c-3" target="5w2LUHWujk-qeieROwjQ-17">
          <mxGeometry width="50" height="50" relative="1" as="geometry">
            <mxPoint x="960" y="1160" as="sourcePoint" />
            <mxPoint x="1010" y="1110" as="targetPoint" />
          </mxGeometry>
        </mxCell>
        <mxCell id="5w2LUHWujk-qeieROwjQ-23" value="&lt;b&gt;&lt;font style=&quot;font-size: 16px;&quot;&gt;ROUTER&lt;/font&gt;&lt;/b&gt;" style="text;html=1;strokeColor=none;fillColor=none;align=center;verticalAlign=middle;whiteSpace=wrap;rounded=0;" vertex="1" parent="1">
          <mxGeometry x="1150" y="810" width="60" height="40" as="geometry" />
        </mxCell>
        <mxCell id="5w2LUHWujk-qeieROwjQ-25" value="" style="endArrow=none;html=1;rounded=0;exitX=0;exitY=0;exitDx=97.5;exitDy=0;exitPerimeter=0;" edge="1" parent="1">
          <mxGeometry width="50" height="50" relative="1" as="geometry">
            <mxPoint x="910" y="500" as="sourcePoint" />
            <mxPoint x="1160" y="500" as="targetPoint" />
          </mxGeometry>
        </mxCell>
        <mxCell id="5w2LUHWujk-qeieROwjQ-30" style="edgeStyle=orthogonalEdgeStyle;rounded=0;orthogonalLoop=1;jettySize=auto;html=1;exitX=1;exitY=0.5;exitDx=0;exitDy=0;entryX=0.476;entryY=1.005;entryDx=0;entryDy=0;entryPerimeter=0;" edge="1" parent="1" source="5w2LUHWujk-qeieROwjQ-26" target="39150e848f15840c-2">
          <mxGeometry relative="1" as="geometry" />
        </mxCell>
        <mxCell id="5w2LUHWujk-qeieROwjQ-26" value="&lt;b&gt;+TCP/IP&lt;/b&gt;" style="text;html=1;strokeColor=none;fillColor=none;align=center;verticalAlign=middle;whiteSpace=wrap;rounded=0;" vertex="1" parent="1">
          <mxGeometry x="1450" y="800" width="60" height="40" as="geometry" />
        </mxCell>
        <mxCell id="5w2LUHWujk-qeieROwjQ-27" value="" style="endArrow=none;html=1;rounded=0;entryX=0;entryY=0.5;entryDx=0;entryDy=0;exitX=0.461;exitY=0.005;exitDx=0;exitDy=0;exitPerimeter=0;" edge="1" parent="1" source="5w2LUHWujk-qeieROwjQ-15" target="5w2LUHWujk-qeieROwjQ-26">
          <mxGeometry width="50" height="50" relative="1" as="geometry">
            <mxPoint x="1300" y="820" as="sourcePoint" />
            <mxPoint x="1550" y="824.1700000000001" as="targetPoint" />
          </mxGeometry>
        </mxCell>
        <mxCell id="5w2LUHWujk-qeieROwjQ-31" value="&lt;b&gt;StyleSwap&lt;/b&gt;" style="shape=component;align=left;spacingLeft=36;rounded=0;shadow=0;comic=0;labelBackgroundColor=none;strokeWidth=1;fontFamily=Verdana;fontSize=12;html=1;" vertex="1" parent="1">
          <mxGeometry x="1860" y="820" width="120" height="60" as="geometry" />
        </mxCell>
        <mxCell id="5w2LUHWujk-qeieROwjQ-32" value="&lt;b&gt;JavaScript&lt;/b&gt;" style="shape=component;align=left;spacingLeft=36;rounded=0;shadow=0;comic=0;labelBackgroundColor=none;strokeWidth=1;fontFamily=Verdana;fontSize=12;html=1;" vertex="1" parent="1">
          <mxGeometry x="2010" y="950" width="120" height="60" as="geometry" />
        </mxCell>
        <mxCell id="5w2LUHWujk-qeieROwjQ-33" value="&lt;b&gt;JDK&lt;/b&gt;" style="shape=component;align=center;spacingLeft=36;rounded=0;shadow=0;comic=0;labelBackgroundColor=none;strokeWidth=1;fontFamily=Verdana;fontSize=12;html=1;" vertex="1" parent="1">
          <mxGeometry x="2000" y="710" width="120" height="60" as="geometry" />
        </mxCell>
        <mxCell id="5w2LUHWujk-qeieROwjQ-34" value="&lt;b&gt;SERVIDOR WEB Y DE APLICACIONES&lt;/b&gt;" style="text;html=1;strokeColor=none;fillColor=none;align=center;verticalAlign=middle;whiteSpace=wrap;rounded=0;" vertex="1" parent="1">
          <mxGeometry x="1680" y="650" width="290" height="30" as="geometry" />
        </mxCell>
        <mxCell id="5w2LUHWujk-qeieROwjQ-36" style="edgeStyle=orthogonalEdgeStyle;rounded=0;orthogonalLoop=1;jettySize=auto;html=1;exitX=0;exitY=0;exitDx=220;exitDy=85;exitPerimeter=0;entryX=0;entryY=0;entryDx=445;entryDy=280;entryPerimeter=0;" edge="1" parent="1" source="5w2LUHWujk-qeieROwjQ-35" target="39150e848f15840c-2">
          <mxGeometry relative="1" as="geometry" />
        </mxCell>
        <mxCell id="5w2LUHWujk-qeieROwjQ-35" value="&lt;b&gt;Sistema Operativo: Microsoft Windows Server 2008 R2 o Superiores&lt;/b&gt;" style="shape=note;whiteSpace=wrap;html=1;backgroundOutline=1;darkOpacity=0.05;" vertex="1" parent="1">
          <mxGeometry x="1470" y="1300" width="220" height="140" as="geometry" />
        </mxCell>
        <mxCell id="5w2LUHWujk-qeieROwjQ-39" style="edgeStyle=orthogonalEdgeStyle;rounded=0;orthogonalLoop=1;jettySize=auto;html=1;exitX=1;exitY=0.5;exitDx=0;exitDy=0;" edge="1" parent="1" source="5w2LUHWujk-qeieROwjQ-37">
          <mxGeometry relative="1" as="geometry">
            <mxPoint x="2583" y="820" as="targetPoint" />
          </mxGeometry>
        </mxCell>
        <mxCell id="5w2LUHWujk-qeieROwjQ-37" value="&lt;b&gt;+JDBC&lt;/b&gt;" style="text;html=1;strokeColor=none;fillColor=none;align=center;verticalAlign=middle;whiteSpace=wrap;rounded=0;" vertex="1" parent="1">
          <mxGeometry x="2350" y="800" width="60" height="40" as="geometry" />
        </mxCell>
        <mxCell id="5w2LUHWujk-qeieROwjQ-40" value="&lt;b&gt;BD: StyleSwap&lt;/b&gt;" style="shape=component;align=center;spacingLeft=36;rounded=0;shadow=0;comic=0;labelBackgroundColor=none;strokeWidth=1;fontFamily=Verdana;fontSize=12;html=1;" vertex="1" parent="1">
          <mxGeometry x="2630" y="780" width="150" height="60" as="geometry" />
        </mxCell>
        <mxCell id="5w2LUHWujk-qeieROwjQ-41" value="&lt;b&gt;SQL Server&lt;/b&gt;" style="shape=component;align=center;spacingLeft=36;rounded=0;shadow=0;comic=0;labelBackgroundColor=none;strokeWidth=1;fontFamily=Verdana;fontSize=12;html=1;" vertex="1" parent="1">
          <mxGeometry x="2630" y="880" width="130" height="60" as="geometry" />
        </mxCell>
        <mxCell id="5w2LUHWujk-qeieROwjQ-42" value="" style="endArrow=none;html=1;rounded=0;entryX=0;entryY=0.5;entryDx=0;entryDy=0;exitX=0.461;exitY=0.005;exitDx=0;exitDy=0;exitPerimeter=0;" edge="1" parent="1">
          <mxGeometry width="50" height="50" relative="1" as="geometry">
            <mxPoint x="2190" y="820" as="sourcePoint" />
            <mxPoint x="2351" y="818" as="targetPoint" />
          </mxGeometry>
        </mxCell>
        <mxCell id="5w2LUHWujk-qeieROwjQ-43" value="&lt;b&gt;SERVIDOR BD&lt;/b&gt;" style="text;html=1;strokeColor=none;fillColor=none;align=left;verticalAlign=middle;whiteSpace=wrap;rounded=0;" vertex="1" parent="1">
          <mxGeometry x="2590" y="725" width="130" height="30" as="geometry" />
        </mxCell>
        <mxCell id="5w2LUHWujk-qeieROwjQ-44" style="edgeStyle=orthogonalEdgeStyle;rounded=0;orthogonalLoop=1;jettySize=auto;html=1;exitX=0.5;exitY=1;exitDx=0;exitDy=0;" edge="1" parent="1" source="39150e848f15840c-7" target="39150e848f15840c-7">
          <mxGeometry relative="1" as="geometry" />
        </mxCell>
        <mxCell id="5w2LUHWujk-qeieROwjQ-50" style="edgeStyle=orthogonalEdgeStyle;rounded=0;orthogonalLoop=1;jettySize=auto;html=1;exitX=0.5;exitY=0;exitDx=0;exitDy=0;exitPerimeter=0;entryX=0;entryY=0;entryDx=280;entryDy=155;entryPerimeter=0;" edge="1" parent="1" source="5w2LUHWujk-qeieROwjQ-46" target="5w2LUHWujk-qeieROwjQ-6">
          <mxGeometry relative="1" as="geometry" />
        </mxCell>
        <mxCell id="5w2LUHWujk-qeieROwjQ-46" value="&lt;b&gt;2 RAM&lt;/b&gt;" style="shape=note;whiteSpace=wrap;html=1;backgroundOutline=1;darkOpacity=0.05;" vertex="1" parent="1">
          <mxGeometry x="2500" y="1177.5" width="170" height="80" as="geometry" />
        </mxCell>
        <mxCell id="5w2LUHWujk-qeieROwjQ-48" style="edgeStyle=orthogonalEdgeStyle;rounded=0;orthogonalLoop=1;jettySize=auto;html=1;exitX=0.5;exitY=1;exitDx=0;exitDy=0;exitPerimeter=0;" edge="1" parent="1" source="5w2LUHWujk-qeieROwjQ-47">
          <mxGeometry relative="1" as="geometry">
            <mxPoint x="2675.230769230769" y="670" as="targetPoint" />
          </mxGeometry>
        </mxCell>
        <mxCell id="5w2LUHWujk-qeieROwjQ-47" value="&lt;b&gt;Sistema De informacion&lt;/b&gt;" style="shape=note;whiteSpace=wrap;html=1;backgroundOutline=1;darkOpacity=0.05;" vertex="1" parent="1">
          <mxGeometry x="2590" y="400" width="170" height="80" as="geometry" />
        </mxCell>
        <mxCell id="5w2LUHWujk-qeieROwjQ-52" style="edgeStyle=orthogonalEdgeStyle;rounded=0;orthogonalLoop=1;jettySize=auto;html=1;exitX=0.5;exitY=0;exitDx=0;exitDy=0;exitPerimeter=0;" edge="1" parent="1" source="5w2LUHWujk-qeieROwjQ-51" target="5w2LUHWujk-qeieROwjQ-6">
          <mxGeometry relative="1" as="geometry">
            <Array as="points">
              <mxPoint x="2955" y="1070" />
              <mxPoint x="2715" y="1070" />
            </Array>
          </mxGeometry>
        </mxCell>
        <mxCell id="5w2LUHWujk-qeieROwjQ-51" value="&lt;b&gt;Procesador Intel&lt;/b&gt;" style="shape=note;whiteSpace=wrap;html=1;backgroundOutline=1;darkOpacity=0.05;" vertex="1" parent="1">
          <mxGeometry x="2870" y="1177.5" width="170" height="92.5" as="geometry" />
        </mxCell>
      </root>
    </mxGraphModel>
  </diagram>
</mxfile>
